<svg width="1425" height="490" viewBox="0 0 1425 490" fill="none" xmlns="http://www.w3.org/2000/svg">
<path d="M41.5 1.75817e-06C41.5 1.75817e-06 132 140 41.5 244.5C-49 349 41.5 489 41.5 489" stroke="white" stroke-opacity="0.1"/>
<path d="M121.222 1.75817e-06C121.222 1.75817e-06 211.722 140 121.222 244.5C30.7223 349 121.222 489 121.222 489" stroke="white" stroke-opacity="0.1"/>
<path d="M200.945 1.75817e-06C200.945 1.75817e-06 291.445 140 200.945 244.5C110.445 349 200.945 489 200.945 489" stroke="white" stroke-opacity="0.1"/>
<path d="M280.667 1.75817e-06C280.667 1.75817e-06 371.167 140 280.667 244.5C190.167 349 280.667 489 280.667 489" stroke="white" stroke-opacity="0.1"/>
<path d="M360.389 1.75817e-06C360.389 1.75817e-06 450.889 140 360.389 244.5C269.889 349 360.389 489 360.389 489" stroke="white" stroke-opacity="0.1"/>
<path d="M440.111 1.75817e-06C440.111 1.75817e-06 530.611 140 440.111 244.5C349.611 349 440.111 489 440.111 489" stroke="white" stroke-opacity="0.1"/>
<path d="M519.833 1.75817e-06C519.833 1.75817e-06 610.333 140 519.833 244.5C429.333 349 519.833 489 519.833 489" stroke="white" stroke-opacity="0.1"/>
<path d="M599.556 1.75817e-06C599.556 1.75817e-06 690.056 140 599.556 244.5C509.056 349 599.556 489 599.556 489" stroke="white" stroke-opacity="0.1"/>
<path d="M679.278 1.75817e-06C679.278 1.75817e-06 769.778 140 679.278 244.5C588.778 349 679.278 489 679.278 489" stroke="white" stroke-opacity="0.1"/>
<path d="M759 1.75817e-06C759 1.75817e-06 849.5 140 759 244.5C668.5 349 759 489 759 489" stroke="white" stroke-opacity="0.1"/>
<path d="M838.722 1.75817e-06C838.722 1.75817e-06 929.222 140 838.722 244.5C748.222 349 838.722 489 838.722 489" stroke="white" stroke-opacity="0.1"/>
<path d="M918.445 1.75817e-06C918.445 1.75817e-06 1008.94 140 918.445 244.5C827.945 349 918.445 489 918.445 489" stroke="white" stroke-opacity="0.1"/>
<path d="M998.167 1.75817e-06C998.167 1.75817e-06 1088.67 140 998.167 244.5C907.667 349 998.167 489 998.167 489" stroke="white" stroke-opacity="0.1"/>
<path d="M1077.89 1.75817e-06C1077.89 1.75817e-06 1168.39 140 1077.89 244.5C987.389 349 1077.89 489 1077.89 489" stroke="white" stroke-opacity="0.1"/>
<path d="M1157.61 1.75817e-06C1157.61 1.75817e-06 1248.11 140 1157.61 244.5C1067.11 349 1157.61 489 1157.61 489" stroke="white" stroke-opacity="0.1"/>
<path d="M1237.33 1.75817e-06C1237.33 1.75817e-06 1327.83 140 1237.33 244.5C1146.83 349 1237.33 489 1237.33 489" stroke="white" stroke-opacity="0.1"/>
<path d="M1317.06 1.75817e-06C1317.06 1.75817e-06 1407.56 140 1317.06 244.5C1226.56 349 1317.06 489 1317.06 489" stroke="white" stroke-opacity="0.1"/>
<path d="M1396.78 1.75817e-06C1396.78 1.75817e-06 1487.28 140 1396.78 244.5C1306.28 349 1396.78 489 1396.78 489" stroke="white" stroke-opacity="0.1"/>
</svg>
