<svg width="84" height="82" viewBox="0 0 84 82" fill="none" xmlns="http://www.w3.org/2000/svg">
<path d="M41.6667 0C36.1949 0 30.7768 1.07774 25.7215 3.17169C20.6663 5.26563 16.073 8.33478 12.2039 12.2039C4.38987 20.0179 0 30.616 0 41.6667C0 60.0833 11.9583 75.7083 28.5 81.25C30.5833 81.5833 31.25 80.2917 31.25 79.1667V72.125C19.7083 74.625 17.25 66.5417 17.25 66.5417C15.3333 61.7083 12.625 60.4167 12.625 60.4167C8.83333 57.8333 12.9167 57.9167 12.9167 57.9167C17.0833 58.2083 19.2917 62.2083 19.2917 62.2083C22.9167 68.5417 29.0417 66.6667 31.4167 65.6667C31.7917 62.9583 32.875 61.125 34.0417 60.0833C24.7917 59.0417 15.0833 55.4583 15.0833 39.5833C15.0833 34.9583 16.6667 31.25 19.375 28.2917C18.9583 27.25 17.5 22.9167 19.7917 17.2917C19.7917 17.2917 23.2917 16.1667 31.25 21.5417C34.5417 20.625 38.125 20.1667 41.6667 20.1667C45.2083 20.1667 48.7917 20.625 52.0833 21.5417C60.0417 16.1667 63.5417 17.2917 63.5417 17.2917C65.8333 22.9167 64.375 27.25 63.9583 28.2917C66.6667 31.25 68.25 34.9583 68.25 39.5833C68.25 55.5 58.5 59 49.2083 60.0417C50.7083 61.3333 52.0833 63.875 52.0833 67.75V79.1667C52.0833 80.2917 52.75 81.625 54.875 81.25C71.4167 75.6667 83.3333 60.0833 83.3333 41.6667C83.3333 36.1949 82.2556 30.7768 80.1616 25.7215C78.0677 20.6663 74.9986 16.073 71.1294 12.2039C67.2603 8.33478 62.667 5.26563 57.6118 3.17169C52.5566 1.07774 47.1384 0 41.6667 0Z" fill="white"/>
</svg>
