<svg width="84" height="67" viewBox="0 0 84 67" fill="none" xmlns="http://www.w3.org/2000/svg">
<path d="M8.33333 66.6667C6.04167 66.6667 4.08056 65.8514 2.45 64.2208C0.819445 62.5903 0.00277778 60.6278 0 58.3333V8.33333C0 6.04167 0.816667 4.08055 2.45 2.45C4.08333 0.819444 6.04444 0.00277778 8.33333 0H75C77.2917 0 79.2542 0.816666 80.8875 2.45C82.5208 4.08333 83.3361 6.04444 83.3333 8.33333V58.3333C83.3333 60.625 82.5181 62.5875 80.8875 64.2208C79.2569 65.8542 77.2944 66.6694 75 66.6667H8.33333ZM41.6667 37.5L8.33333 16.6667V58.3333H75V16.6667L41.6667 37.5ZM41.6667 29.1667L75 8.33333H8.33333L41.6667 29.1667ZM8.33333 16.6667V8.33333V58.3333V16.6667Z" fill="white"/>
</svg>
