<svg width="84" height="84" viewBox="0 0 84 84" fill="none" xmlns="http://www.w3.org/2000/svg">
<path d="M24.1667 0H59.1667C72.5 0 83.3333 10.8333 83.3333 24.1667V59.1667C83.3333 65.5761 80.7872 71.723 76.2551 76.2551C71.723 80.7872 65.5761 83.3333 59.1667 83.3333H24.1667C10.8333 83.3333 0 72.5 0 59.1667V24.1667C0 17.7573 2.54612 11.6104 7.07825 7.07825C11.6104 2.54612 17.7573 0 24.1667 0ZM23.3333 8.33333C19.3551 8.33333 15.5398 9.91369 12.7267 12.7267C9.91369 15.5398 8.33333 19.3551 8.33333 23.3333V60C8.33333 68.2917 15.0417 75 23.3333 75H60C63.9782 75 67.7936 73.4196 70.6066 70.6066C73.4196 67.7936 75 63.9782 75 60V23.3333C75 15.0417 68.2917 8.33333 60 8.33333H23.3333ZM63.5417 14.5833C64.923 14.5833 66.2478 15.1321 67.2245 16.1088C68.2013 17.0856 68.75 18.4103 68.75 19.7917C68.75 21.173 68.2013 22.4978 67.2245 23.4745C66.2478 24.4513 64.923 25 63.5417 25C62.1603 25 60.8356 24.4513 59.8588 23.4745C58.8821 22.4978 58.3333 21.173 58.3333 19.7917C58.3333 18.4103 58.8821 17.0856 59.8588 16.1088C60.8356 15.1321 62.1603 14.5833 63.5417 14.5833ZM41.6667 20.8333C47.192 20.8333 52.491 23.0283 56.3981 26.9353C60.3051 30.8423 62.5 36.1413 62.5 41.6667C62.5 47.192 60.3051 52.491 56.3981 56.3981C52.491 60.3051 47.192 62.5 41.6667 62.5C36.1413 62.5 30.8423 60.3051 26.9353 56.3981C23.0283 52.491 20.8333 47.192 20.8333 41.6667C20.8333 36.1413 23.0283 30.8423 26.9353 26.9353C30.8423 23.0283 36.1413 20.8333 41.6667 20.8333ZM41.6667 29.1667C38.3515 29.1667 35.172 30.4836 32.8278 32.8278C30.4836 35.172 29.1667 38.3515 29.1667 41.6667C29.1667 44.9819 30.4836 48.1613 32.8278 50.5055C35.172 52.8497 38.3515 54.1667 41.6667 54.1667C44.9819 54.1667 48.1613 52.8497 50.5055 50.5055C52.8497 48.1613 54.1667 44.9819 54.1667 41.6667C54.1667 38.3515 52.8497 35.172 50.5055 32.8278C48.1613 30.4836 44.9819 29.1667 41.6667 29.1667Z" fill="white"/>
</svg>
