<svg width="83" height="84" viewBox="0 0 83 84" fill="none" xmlns="http://www.w3.org/2000/svg">
<path d="M70.8333 12.1252C67.0133 8.2666 62.4633 5.2072 57.4485 3.12546C52.4337 1.04372 47.0547 -0.0186671 41.625 0.000248207C18.875 0.000248207 0.333334 18.5419 0.333334 41.2919C0.333334 48.5836 2.25 55.6669 5.83333 61.9169L0 83.3336L21.875 77.5836C27.9167 80.8752 34.7083 82.6252 41.625 82.6252C64.375 82.6252 82.9167 64.0836 82.9167 41.3336C82.9167 30.2919 78.625 19.9169 70.8333 12.1252ZM41.625 75.6252C35.4583 75.6252 29.4167 73.9586 24.125 70.8336L22.875 70.0836L9.875 73.5002L13.3333 60.8336L12.5 59.5419C9.07394 54.0709 7.25475 47.7471 7.25 41.2919C7.25 22.3752 22.6667 6.95858 41.5833 6.95858C50.75 6.95858 59.375 10.5419 65.8333 17.0419C69.0312 20.2251 71.5654 24.0113 73.2891 28.1812C75.0129 32.351 75.8918 36.8215 75.875 41.3336C75.9583 60.2502 60.5417 75.6252 41.625 75.6252ZM60.4583 49.9586C59.4167 49.4586 54.3333 46.9586 53.4167 46.5836C52.4583 46.2502 51.7917 46.0836 51.0833 47.0836C50.375 48.1252 48.4167 50.4586 47.8333 51.1252C47.25 51.8336 46.625 51.9169 45.5833 51.3752C44.5417 50.8752 41.2083 49.7502 37.2917 46.2502C34.2083 43.5002 32.1667 40.1252 31.5417 39.0836C30.9583 38.0419 31.4583 37.5002 32 36.9586C32.4583 36.5002 33.0417 35.7502 33.5417 35.1669C34.0417 34.5836 34.25 34.1252 34.5833 33.4586C34.9167 32.7502 34.75 32.1669 34.5 31.6669C34.25 31.1669 32.1667 26.0836 31.3333 24.0002C30.5 22.0002 29.625 22.2502 29 22.2086H27C26.2917 22.2086 25.2083 22.4586 24.25 23.5002C23.3333 24.5419 20.6667 27.0419 20.6667 32.1252C20.6667 37.2086 24.375 42.1252 24.875 42.7919C25.375 43.5002 32.1667 53.9169 42.5 58.3752C44.9583 59.4586 46.875 60.0836 48.375 60.5419C50.8333 61.3336 53.0833 61.2086 54.875 60.9586C56.875 60.6669 61 58.4586 61.8333 56.0419C62.7083 53.6252 62.7083 51.5836 62.4167 51.1252C62.125 50.6669 61.5 50.4586 60.4583 49.9586Z" fill="white"/>
</svg>
